<svg width="303" height="46" viewBox="0 0 303 46" fill="none" xmlns="http://www.w3.org/2000/svg">
<path d="M56.246 44.903C55.845 44.903 55.515 44.772 55.254 44.511C54.992 44.249 54.862 43.918 54.862 43.519V21.228C54.923 18.798 55.515 16.636 56.639 14.744C57.762 12.852 59.293 11.352 61.231 10.244C63.169 9.13701 65.338 8.58301 67.738 8.58301C70.199 8.58301 72.406 9.14501 74.361 10.267C76.314 11.39 77.852 12.929 78.976 14.882C80.099 16.836 80.66 19.043 80.66 21.504C80.66 23.935 80.098 26.127 78.976 28.081C77.853 30.035 76.314 31.573 74.361 32.696C72.407 33.819 70.199 34.38 67.738 34.38C65.523 34.38 63.53 33.903 61.761 32.949C59.991 31.996 58.615 30.718 57.63 29.119V43.518C57.63 43.917 57.507 44.248 57.261 44.51C57.014 44.772 56.676 44.903 56.246 44.903ZM67.737 31.797C69.675 31.797 71.406 31.344 72.929 30.436C74.452 29.529 75.659 28.298 76.552 26.744C77.444 25.191 77.89 23.444 77.89 21.506C77.89 19.537 77.444 17.776 76.552 16.222C75.659 14.669 74.452 13.438 72.929 12.53C71.406 11.623 69.675 11.169 67.737 11.169C65.829 11.169 64.106 11.623 62.568 12.53C61.029 13.438 59.822 14.669 58.946 16.222C58.069 17.776 57.63 19.538 57.63 21.506C57.63 23.444 58.069 25.191 58.946 26.744C59.823 28.298 61.03 29.529 62.568 30.436C64.106 31.343 65.829 31.797 67.737 31.797Z" fill="url(#paint0_linear_99_1956)"/>
<path d="M109.273 34.3349C106.842 34.3349 104.681 33.7889 102.789 32.6969C100.897 31.6049 99.412 30.0889 98.336 28.1509C97.259 26.2129 96.72 23.9969 96.72 21.5049C96.72 18.9829 97.228 16.7589 98.243 14.8359C99.259 12.9139 100.658 11.3979 102.443 10.2899C104.227 9.18291 106.274 8.62891 108.581 8.62891C110.858 8.62891 112.873 9.15991 114.627 10.2209C116.38 11.2829 117.749 12.7439 118.734 14.6049C119.718 16.4669 120.21 18.6129 120.21 21.0429C120.21 21.4429 120.087 21.7579 119.841 21.9889C119.594 22.2199 119.271 22.3349 118.872 22.3349H98.566V19.9349H119.611L117.58 21.4579C117.641 19.4589 117.303 17.6899 116.564 16.1509C115.826 14.6129 114.772 13.4049 113.403 12.5279C112.033 11.6509 110.426 11.2129 108.58 11.2129C106.827 11.2129 105.264 11.6509 103.896 12.5279C102.527 13.4049 101.45 14.6129 100.666 16.1509C99.881 17.6899 99.489 19.4739 99.489 21.5039C99.489 23.5039 99.904 25.2729 100.735 26.8119C101.566 28.3509 102.72 29.5579 104.197 30.4349C105.674 31.3119 107.365 31.7499 109.273 31.7499C110.473 31.7499 111.68 31.5419 112.896 31.1269C114.111 30.7119 115.072 30.1649 115.78 29.4879C116.026 29.2419 116.326 29.1119 116.68 29.0959C117.033 29.0809 117.333 29.1809 117.58 29.3959C117.918 29.6729 118.095 29.9809 118.11 30.3189C118.126 30.6579 117.979 30.9649 117.672 31.2419C116.687 32.1349 115.402 32.8729 113.818 33.4569C112.234 34.0429 110.719 34.3349 109.273 34.3349Z" fill="url(#paint1_linear_99_1956)"/>
<path d="M138.117 34.104C137.717 34.104 137.386 33.973 137.125 33.712C136.863 33.451 136.733 33.12 136.733 32.72V10.244C136.733 9.81401 136.863 9.47501 137.125 9.22901C137.386 8.98301 137.717 8.86001 138.117 8.86001C138.548 8.86001 138.886 8.98301 139.133 9.22901C139.379 9.47501 139.502 9.81401 139.502 10.244V32.72C139.502 33.12 139.378 33.451 139.133 33.712C138.886 33.974 138.547 34.104 138.117 34.104ZM137.655 18.69C137.84 16.721 138.378 14.975 139.27 13.452C140.162 11.929 141.316 10.737 142.731 9.87501C144.146 9.01401 145.715 8.58301 147.439 8.58301C148.608 8.58301 149.516 8.721 150.162 8.998C150.808 9.275 151.054 9.76701 150.901 10.475C150.809 10.937 150.593 11.214 150.255 11.306C149.916 11.398 149.509 11.406 149.032 11.329C148.555 11.252 148.024 11.214 147.44 11.214C145.901 11.214 144.533 11.537 143.333 12.183C142.133 12.829 141.194 13.714 140.518 14.837C139.841 15.96 139.502 17.245 139.502 18.691L137.655 18.69Z" fill="url(#paint2_linear_99_1956)"/>
<path d="M177.16 34.381C174.698 34.381 172.491 33.82 170.538 32.697C168.584 31.574 167.046 30.036 165.923 28.082C164.8 26.128 164.239 23.937 164.239 21.505C164.239 19.044 164.8 16.837 165.923 14.883C167.046 12.929 168.584 11.391 170.538 10.268C172.491 9.14498 174.699 8.58398 177.16 8.58398C179.621 8.58398 181.821 9.14598 183.76 10.268C185.698 11.391 187.229 12.93 188.352 14.883C189.475 16.837 190.036 19.044 190.036 21.505L188.882 23.351C188.882 25.444 188.366 27.32 187.336 28.982C186.305 30.643 184.913 31.959 183.16 32.928C181.406 33.897 179.406 34.381 177.16 34.381ZM177.16 31.797C179.099 31.797 180.829 31.344 182.352 30.436C183.875 29.529 185.075 28.298 185.952 26.744C186.829 25.191 187.268 23.444 187.268 21.506C187.268 19.537 186.829 17.776 185.952 16.222C185.075 14.669 183.875 13.438 182.352 12.53C180.829 11.623 179.098 11.169 177.16 11.169C175.252 11.169 173.529 11.623 171.991 12.53C170.452 13.438 169.237 14.669 168.345 16.222C167.452 17.776 167.007 19.538 167.007 21.506C167.007 23.444 167.453 25.191 168.345 26.744C169.237 28.298 170.452 29.529 171.991 30.436C173.53 31.343 175.252 31.797 177.16 31.797ZM188.698 34.104C188.267 34.104 187.921 33.973 187.66 33.712C187.398 33.451 187.268 33.12 187.268 32.72V24.274L188.145 21.505H190.037V32.72C190.037 33.12 189.913 33.451 189.668 33.712C189.421 33.974 189.098 34.104 188.698 34.104Z" fill="url(#paint3_linear_99_1956)"/>
<path d="M208.865 34.104C208.465 34.104 208.134 33.973 207.873 33.712C207.611 33.451 207.481 33.12 207.481 32.72V10.244C207.481 9.81399 207.611 9.47499 207.873 9.22899C208.134 8.98299 208.465 8.85999 208.865 8.85999C209.295 8.85999 209.634 8.98299 209.881 9.22899C210.127 9.47499 210.25 9.81399 210.25 10.244V32.72C210.25 33.12 210.126 33.451 209.881 33.712C209.634 33.974 209.295 34.104 208.865 34.104ZM229.31 34.104C228.909 34.104 228.579 33.973 228.318 33.712C228.056 33.451 227.926 33.12 227.926 32.72V20.305C227.926 18.274 227.534 16.598 226.749 15.275C225.964 13.952 224.903 12.96 223.565 12.298C222.226 11.637 220.711 11.306 219.019 11.306C217.358 11.306 215.865 11.622 214.543 12.252C213.219 12.883 212.173 13.752 211.405 14.86C210.636 15.967 210.251 17.214 210.251 18.598H207.943C208.066 16.691 208.635 14.975 209.651 13.452C210.666 11.929 211.989 10.729 213.62 9.85199C215.25 8.97499 217.05 8.53699 219.02 8.53699C221.235 8.53699 223.227 8.99099 224.997 9.89799C226.766 10.806 228.158 12.129 229.174 13.867C230.19 15.606 230.697 17.752 230.697 20.305V32.72C230.697 33.12 230.566 33.451 230.305 33.712C230.04 33.974 229.709 34.104 229.31 34.104Z" fill="url(#paint4_linear_99_1956)"/>
<path d="M247.077 12.275C246.708 12.275 246.408 12.16 246.177 11.929C245.946 11.698 245.831 11.399 245.831 11.029C245.831 10.66 245.946 10.36 246.177 10.129C246.408 9.89796 246.708 9.78296 247.077 9.78296H259.584C259.953 9.78296 260.253 9.89796 260.484 10.129C260.715 10.36 260.83 10.66 260.83 11.029C260.83 11.398 260.715 11.698 260.484 11.929C260.253 12.16 259.953 12.275 259.584 12.275H247.077ZM259.399 34.104C257.707 34.074 256.199 33.681 254.876 32.927C253.553 32.173 252.522 31.127 251.784 29.789C251.046 28.451 250.677 26.936 250.677 25.243V2.25996C250.677 1.82996 250.807 1.48296 251.069 1.22196C251.33 0.960958 251.661 0.829956 252.061 0.829956C252.492 0.829956 252.838 0.960958 253.1 1.22196C253.361 1.48396 253.492 1.82996 253.492 2.25996V25.243C253.492 27.028 254.046 28.481 255.153 29.604C256.26 30.727 257.691 31.288 259.445 31.288H260.461C260.891 31.288 261.238 31.419 261.499 31.68C261.76 31.942 261.892 32.288 261.892 32.719C261.892 33.119 261.761 33.45 261.499 33.711C261.238 33.973 260.891 34.103 260.461 34.103L259.399 34.104Z" fill="url(#paint5_linear_99_1956)"/>
<path d="M289.721 34.381C287.259 34.381 285.052 33.82 283.098 32.697C281.144 31.574 279.606 30.036 278.483 28.082C277.36 26.128 276.799 23.937 276.799 21.505C276.799 19.044 277.36 16.837 278.483 14.883C279.606 12.929 281.144 11.391 283.098 10.268C285.052 9.14498 287.259 8.58398 289.721 8.58398C292.182 8.58398 294.382 9.14598 296.321 10.268C298.259 11.391 299.789 12.93 300.913 14.883C302.036 16.837 302.597 19.044 302.597 21.505C302.597 23.936 302.035 26.128 300.913 28.082C299.79 30.036 298.26 31.574 296.321 32.697C294.382 33.82 292.182 34.381 289.721 34.381ZM289.721 31.797C291.659 31.797 293.39 31.344 294.913 30.436C296.436 29.529 297.636 28.298 298.513 26.744C299.39 25.191 299.829 23.429 299.829 21.459C299.829 19.521 299.39 17.775 298.513 16.221C297.636 14.668 296.437 13.437 294.913 12.529C293.39 11.622 291.659 11.168 289.721 11.168C287.813 11.168 286.09 11.622 284.552 12.529C283.013 13.437 281.798 14.668 280.906 16.221C280.013 17.775 279.568 19.537 279.568 21.505C279.568 23.443 280.014 25.19 280.906 26.743C281.798 28.297 283.013 29.528 284.552 30.435C286.09 31.343 287.812 31.797 289.721 31.797Z" fill="url(#paint6_linear_99_1956)"/>
<path d="M40.595 44.901H5.314C2.941 44.901 1 42.96 1 40.587V7.314C1 4.941 2.941 3 5.314 3H40.595C42.968 3 44.909 4.941 44.909 7.314V40.587C44.909 42.96 42.968 44.901 40.595 44.901Z" fill="url(#paint7_linear_99_1956)" stroke="url(#paint8_linear_99_1956)" stroke-width="0.3229" stroke-miterlimit="10"/>
<path d="M17.928 8.55499H20.803C20.955 8.55499 21.056 8.59799 21.105 8.68399C21.154 8.76999 21.153 8.83999 21.099 8.89399L16.205 16.357C16.152 16.432 16.07 16.508 15.96 16.583C15.85 16.658 15.722 16.696 15.578 16.696H12.703C12.551 16.696 12.45 16.653 12.401 16.567C12.352 16.481 12.353 16.411 12.407 16.357L17.301 8.89399C17.339 8.81899 17.417 8.74299 17.535 8.66799C17.652 8.59199 17.783 8.55499 17.928 8.55499ZM17.072 11.992L19.525 11.169V22.981C19.525 23.051 19.483 23.125 19.4 23.203C19.316 23.281 19.202 23.32 19.058 23.32H16.285C16.133 23.32 16.017 23.281 15.937 23.203C15.857 23.125 15.817 23.051 15.817 22.981V12.508L17.072 11.992ZM33.008 11.169C33.114 11.169 33.23 11.2 33.356 11.262C33.481 11.324 33.544 11.409 33.544 11.516V19.633C33.544 19.741 33.481 19.825 33.356 19.887C33.231 19.949 33.115 19.98 33.008 19.98H28.81V22.981C28.81 23.051 28.768 23.125 28.685 23.203C28.601 23.281 28.487 23.32 28.343 23.32H25.571C25.419 23.32 25.303 23.281 25.223 23.203C25.143 23.125 25.103 23.051 25.103 22.981V19.98H21.019C20.913 19.98 20.802 19.95 20.688 19.891C20.574 19.832 20.517 19.746 20.517 19.633V11.516C20.517 11.403 20.574 11.317 20.688 11.258C20.802 11.199 20.912 11.169 21.019 11.169H25.103V8.75599C25.103 8.68599 25.145 8.61199 25.228 8.53399C25.312 8.45599 25.43 8.41699 25.582 8.41699H28.343C28.487 8.41699 28.602 8.45599 28.685 8.53399C28.769 8.61199 28.81 8.68599 28.81 8.75599V11.168L33.008 11.169ZM25.103 13.525H24.225V17.624H25.103V13.525ZM28.81 13.525V17.624H29.837V13.525H28.81Z" fill="#EDEEF0"/>
<path d="M18.475 39.425H15.475C15.331 39.425 15.239 39.383 15.201 39.3C15.163 39.217 15.171 39.148 15.224 39.094L23.243 25.418C23.289 25.348 23.374 25.274 23.5 25.196C23.625 25.118 23.764 25.079 23.916 25.079H26.916C27.06 25.079 27.152 25.122 27.19 25.208C27.228 25.294 27.22 25.364 27.167 25.418L25.262 28.662L32.688 39.095C32.741 39.149 32.756 39.217 32.734 39.301C32.712 39.385 32.624 39.426 32.472 39.426H29.346C29.202 39.426 29.059 39.388 28.918 39.313C28.777 39.238 28.68 39.165 28.627 39.095L23.425 31.809L19.147 39.095C19.109 39.165 19.025 39.238 18.896 39.313C18.768 39.387 18.627 39.425 18.475 39.425Z" fill="#EDEEF0"/>
<defs>
<linearGradient id="paint0_linear_99_1956" x1="54.8611" y1="26.7432" x2="80.6594" y2="26.7432" gradientUnits="userSpaceOnUse">
<stop offset="0.3822" stop-color="#1A669F"/>
<stop offset="0.7641" stop-color="#2C94B1"/>
</linearGradient>
<linearGradient id="paint1_linear_99_1956" x1="96.7196" y1="21.482" x2="120.21" y2="21.482" gradientUnits="userSpaceOnUse">
<stop offset="0.3822" stop-color="#1A669F"/>
<stop offset="0.7641" stop-color="#2C94B1"/>
</linearGradient>
<linearGradient id="paint2_linear_99_1956" x1="136.733" y1="21.3436" x2="150.945" y2="21.3436" gradientUnits="userSpaceOnUse">
<stop offset="0.3822" stop-color="#1A669F"/>
<stop offset="0.7641" stop-color="#2C94B1"/>
</linearGradient>
<linearGradient id="paint3_linear_99_1956" x1="164.238" y1="21.4821" x2="190.036" y2="21.4821" gradientUnits="userSpaceOnUse">
<stop offset="0.3822" stop-color="#1A669F"/>
<stop offset="0.7641" stop-color="#2C94B1"/>
</linearGradient>
<linearGradient id="paint4_linear_99_1956" x1="207.481" y1="21.3206" x2="230.694" y2="21.3206" gradientUnits="userSpaceOnUse">
<stop offset="0.3822" stop-color="#1A669F"/>
<stop offset="0.7641" stop-color="#2C94B1"/>
</linearGradient>
<linearGradient id="paint5_linear_99_1956" x1="245.831" y1="17.467" x2="261.892" y2="17.467" gradientUnits="userSpaceOnUse">
<stop offset="0.3822" stop-color="#1A669F"/>
<stop offset="0.7641" stop-color="#2C94B1"/>
</linearGradient>
<linearGradient id="paint6_linear_99_1956" x1="276.798" y1="21.4821" x2="302.597" y2="21.4821" gradientUnits="userSpaceOnUse">
<stop offset="0.3822" stop-color="#1A669F"/>
<stop offset="0.7641" stop-color="#2C94B1"/>
</linearGradient>
<linearGradient id="paint7_linear_99_1956" x1="1.0006" y1="23.9508" x2="44.9093" y2="23.9508" gradientUnits="userSpaceOnUse">
<stop offset="0.3822" stop-color="#1A669F"/>
<stop offset="0.7641" stop-color="#2C94B1"/>
</linearGradient>
<linearGradient id="paint8_linear_99_1956" x1="0.8391" y1="23.9508" x2="45.0707" y2="23.9508" gradientUnits="userSpaceOnUse">
<stop offset="0.3822" stop-color="#1A669F"/>
<stop offset="0.7641" stop-color="#2C94B1"/>
</linearGradient>
</defs>
</svg>
